<?xml version="1.0" encoding="UTF-8" standalone="no"?>
<svg width="248px" height="181px" viewBox="0 0 248 181" version="1.1" xmlns="http://www.w3.org/2000/svg" xmlns:xlink="http://www.w3.org/1999/xlink" xmlns:sketch="http://www.bohemiancoding.com/sketch/ns">
    <!-- Generator: Sketch 3.5.1 (25234) - http://www.bohemiancoding.com/sketch -->
    <title>Desktop</title>
    <desc>Created with Sketch.</desc>
    <defs></defs>
    <g id="Page-1" stroke="none" stroke-width="1" fill="none" fill-rule="evenodd" sketch:type="MSPage">
        <g id="Desktop" sketch:type="MSArtboardGroup">
            <rect id="BG" fill="#FFFFFF" sketch:type="MSShapeGroup" x="-562" y="-441" width="1440" height="1286"></rect>
            <g id="01" sketch:type="MSLayerGroup" transform="translate(23.000000, 17.000000)">
                <g transform="translate(1.000000, 0.000000)" sketch:type="MSShapeGroup">
                    <g id="01-Grey">
                        <path d="M48.8381364,51.0562848 L48.8381364,52.6787956 C48.8381364,57.3437927 45.0548974,61.1255202 40.390967,61.1255202 L13.1358999,61.1255202 C8.47065706,61.1255202 4.68873053,57.3469941 4.68873053,52.6787956 L4.68873053,48.161498 C4.68873053,45.4447215 5.97185516,43.027515 7.9647978,41.4823774 L7.9647978,5.13543583 C7.9647978,2.29921294 10.2711928,0 13.103377,0 C15.941336,0 18.2419562,2.29746657 18.2419562,5.13543583 L18.2419562,39.7147734 L38.7962731,39.7147734 L38.7962731,5.14201046 C38.7962731,2.3021565 41.1026681,0 43.9348524,0 C46.7728113,0 49.0734316,2.29627084 49.0734316,5.14201046 L49.0734316,49.5151235 C49.0734316,50.0520389 48.9909886,50.5697342 48.8381364,51.0562848 Z" id="Rectangle-1-Copy-2" stroke="#979797" stroke-width="1.125"></path>
                        <g id="Phone" transform="translate(0.000000, 18.747304)">
                            <path d="M41.1814859,-10.3097345 C43.2905877,-10.3097345 45.0168065,-8.59726203 45.0168065,-6.50137622 L45.0168065,42.2662299 C45.0168065,44.3637267 43.2905877,46.0745881 41.1814859,46.0745881 L15.8657736,46.0745881 C13.7566718,46.0745881 12.030453,44.3605047 12.030453,42.2646189 L12.030453,-6.50137622 C12.030453,-8.59726203 13.7566718,-10.3097345 15.8657736,-10.3097345 L41.1814859,-10.3097345 Z" id="Shape" stroke="#979797" stroke-width="1.125" fill="#FFFFFF" transform="translate(28.523630, 17.882427) rotate(-90.000000) translate(-28.523630, -17.882427) "></path>
                            <path d="M54.385339,17.9001696 C54.385339,16.8465883 53.5270967,15.9959905 52.4676786,15.9959905 C51.4082605,15.9959905 50.5500183,16.8465883 50.5500183,17.9001696 C50.5500183,18.9537509 51.4082605,19.8059597 52.4676786,19.8059597 C53.5270967,19.8059597 54.385339,18.9537509 54.385339,17.9001696 Z" id="Path-Copy-2" stroke="#979797" stroke-width="0.75" fill="#FFFFFF"></path>
                            <path d="M41.6558241,39.5861819 L41.6558241,-3.71053396 L14.0071207,-3.71053396 L14.0071207,39.5861819 L41.6558241,39.5861819 Z" id="Path" stroke="#979797" stroke-width="1.125" fill="#FFFFFF" transform="translate(27.831472, 17.937824) rotate(-90.000000) translate(-27.831472, -17.937824) "></path>
                            <path d="M-0.419631888,17.3639326 C-0.606133317,17.3639326 -0.757322598,17.5090698 -0.757322598,17.7050671 L-0.757322598,17.7755453 C-0.757322598,17.9639487 -0.602767228,18.1166798 -0.419631888,18.1166798 L7.00393795,18.1166798 C7.19043938,18.1166798 7.34162866,17.9715426 7.34162866,17.7755453 L7.34162866,17.7050671 C7.34162866,17.5166637 7.18707329,17.3639326 7.00393795,17.3639326 L-0.419631888,17.3639326 Z" id="Path-Copy-3" fill="#979797" transform="translate(3.292153, 17.740306) rotate(-90.000000) translate(-3.292153, -17.740306) "></path>
                        </g>
                        <path d="M5.3098652,53.2042784 L5.3098652,39.7205883 L5.3098652,39.7205883 C5.3098652,36.283535 7.60986149,33.4972527 10.4484444,33.4972527 L10.4484444,33.4972527 C13.2864034,33.4972527 15.5870236,36.2830235 15.5870236,39.7205883 L15.5870236,53.2042784" id="Rectangle-1-Copy-4" stroke="#979797" stroke-width="1.125" fill="#FFFFFF"></path>
                        <rect id="Rectangle-1" stroke="#979797" stroke-width="1.125" fill="#FFFFFF" x="18.2419562" y="10.5924678" width="10.2771584" height="21.1849356" rx="5.48986486"></rect>
                        <rect id="Rectangle-1-Copy" stroke="#979797" stroke-width="1.125" fill="#FFFFFF" x="28.5191147" y="10.5924678" width="10.2771584" height="21.1849356" rx="5.48986486"></rect>
                    </g>
                    <g id="02-Grey" transform="translate(100.500000, 75.274725)">
                        <path d="M48.8381364,51.0562848 L48.8381364,52.6787956 C48.8381364,57.3437927 45.0548974,61.1255202 40.390967,61.1255202 L13.1358999,61.1255202 C8.47065706,61.1255202 4.68873053,57.3469941 4.68873053,52.6787956 L4.68873053,48.161498 C4.68873053,45.4447215 5.97185516,43.027515 7.9647978,41.4823774 L7.9647978,5.13543583 C7.9647978,2.29921294 10.2711928,0 13.103377,0 C15.941336,0 18.2419562,2.29746657 18.2419562,5.13543583 L18.2419562,39.7147734 L38.7962731,39.7147734 L38.7962731,5.14201046 C38.7962731,2.3021565 41.1026681,0 43.9348524,0 C46.7728113,0 49.0734316,2.29627084 49.0734316,5.14201046 L49.0734316,49.5151235 C49.0734316,50.0520389 48.9909886,50.5697342 48.8381364,51.0562848 Z" id="Rectangle-1-Copy-2" stroke="#979797" stroke-width="1.125"></path>
                        <g id="Phone" transform="translate(0.000000, 18.747304)">
                            <path d="M41.1814859,-10.3097345 C43.2905877,-10.3097345 45.0168065,-8.59726203 45.0168065,-6.50137622 L45.0168065,42.2662299 C45.0168065,44.3637267 43.2905877,46.0745881 41.1814859,46.0745881 L15.8657736,46.0745881 C13.7566718,46.0745881 12.030453,44.3605047 12.030453,42.2646189 L12.030453,-6.50137622 C12.030453,-8.59726203 13.7566718,-10.3097345 15.8657736,-10.3097345 L41.1814859,-10.3097345 Z" id="Shape" stroke="#979797" stroke-width="1.125" fill="#FFFFFF" transform="translate(28.523630, 17.882427) rotate(-90.000000) translate(-28.523630, -17.882427) "></path>
                            <path d="M54.385339,17.9001696 C54.385339,16.8465883 53.5270967,15.9959905 52.4676786,15.9959905 C51.4082605,15.9959905 50.5500183,16.8465883 50.5500183,17.9001696 C50.5500183,18.9537509 51.4082605,19.8059597 52.4676786,19.8059597 C53.5270967,19.8059597 54.385339,18.9537509 54.385339,17.9001696 Z" id="Path-Copy-2" stroke="#979797" stroke-width="0.75" fill="#FFFFFF"></path>
                            <path d="M41.6558241,39.5861819 L41.6558241,-3.71053396 L14.0071207,-3.71053396 L14.0071207,39.5861819 L41.6558241,39.5861819 Z" id="Path" stroke="#979797" stroke-width="1.125" fill="#FFFFFF" transform="translate(27.831472, 17.937824) rotate(-90.000000) translate(-27.831472, -17.937824) "></path>
                            <path d="M-0.419631888,17.3639326 C-0.606133317,17.3639326 -0.757322598,17.5090698 -0.757322598,17.7050671 L-0.757322598,17.7755453 C-0.757322598,17.9639487 -0.602767228,18.1166798 -0.419631888,18.1166798 L7.00393795,18.1166798 C7.19043938,18.1166798 7.34162866,17.9715426 7.34162866,17.7755453 L7.34162866,17.7050671 C7.34162866,17.5166637 7.18707329,17.3639326 7.00393795,17.3639326 L-0.419631888,17.3639326 Z" id="Path-Copy-3" fill="#979797" transform="translate(3.292153, 17.740306) rotate(-90.000000) translate(-3.292153, -17.740306) "></path>
                        </g>
                        <path d="M5.3098652,53.2042784 L5.3098652,39.7205883 L5.3098652,39.7205883 C5.3098652,36.283535 7.60986149,33.4972527 10.4484444,33.4972527 L10.4484444,33.4972527 C13.2864034,33.4972527 15.5870236,36.2830235 15.5870236,39.7205883 L15.5870236,53.2042784" id="Rectangle-1-Copy-4" stroke="#979797" stroke-width="1.125" fill="#FFFFFF"></path>
                        <rect id="Rectangle-1" stroke="#979797" stroke-width="1.125" fill="#FFFFFF" x="18.2419562" y="10.5924678" width="10.2771584" height="21.1849356" rx="5.48986486"></rect>
                        <rect id="Rectangle-1-Copy" stroke="#979797" stroke-width="1.125" fill="#FFFFFF" x="28.5191147" y="10.5924678" width="10.2771584" height="21.1849356" rx="5.48986486"></rect>
                    </g>
                    <g id="03-Red" transform="translate(141.000000, 0.000000)">
                        <path d="M48.8381364,51.0562848 L48.8381364,52.6787956 C48.8381364,57.3437927 45.0548974,61.1255202 40.390967,61.1255202 L13.1358999,61.1255202 C8.47065706,61.1255202 4.68873053,57.3469941 4.68873053,52.6787956 L4.68873053,48.161498 C4.68873053,45.4447215 5.97185516,43.027515 7.9647978,41.4823774 L7.9647978,5.13543583 C7.9647978,2.29921294 10.2711928,0 13.103377,0 C15.941336,0 18.2419562,2.29746657 18.2419562,5.13543583 L18.2419562,39.7147734 L38.7962731,39.7147734 L38.7962731,5.14201046 C38.7962731,2.3021565 41.1026681,0 43.9348524,0 C46.7728113,0 49.0734316,2.29627084 49.0734316,5.14201046 L49.0734316,49.5151235 C49.0734316,50.0520389 48.9909886,50.5697342 48.8381364,51.0562848 Z" id="Rectangle-1-Copy-2" stroke="#FF2025" stroke-width="1.125"></path>
                        <g id="Phone" transform="translate(0.000000, 18.747304)">
                            <path d="M41.1814859,-10.3097345 C43.2905877,-10.3097345 45.0168065,-8.59726203 45.0168065,-6.50137622 L45.0168065,42.2662299 C45.0168065,44.3637267 43.2905877,46.0745881 41.1814859,46.0745881 L15.8657736,46.0745881 C13.7566718,46.0745881 12.030453,44.3605047 12.030453,42.2646189 L12.030453,-6.50137622 C12.030453,-8.59726203 13.7566718,-10.3097345 15.8657736,-10.3097345 L41.1814859,-10.3097345 Z" id="Shape" stroke="#FF2025" stroke-width="1.125" fill="#FFFFFF" transform="translate(28.523630, 17.882427) rotate(-90.000000) translate(-28.523630, -17.882427) "></path>
                            <path d="M54.385339,17.9001696 C54.385339,16.8465883 53.5270967,15.9959905 52.4676786,15.9959905 C51.4082605,15.9959905 50.5500183,16.8465883 50.5500183,17.9001696 C50.5500183,18.9537509 51.4082605,19.8059597 52.4676786,19.8059597 C53.5270967,19.8059597 54.385339,18.9537509 54.385339,17.9001696 Z" id="Path-Copy-2" stroke="#FF2025" stroke-width="0.75" fill="#FFFFFF"></path>
                            <path d="M41.6558241,39.5861819 L41.6558241,-3.71053396 L14.0071207,-3.71053396 L14.0071207,39.5861819 L41.6558241,39.5861819 Z" id="Path" stroke="#FF2025" stroke-width="1.125" fill="#FFFFFF" transform="translate(27.831472, 17.937824) rotate(-90.000000) translate(-27.831472, -17.937824) "></path>
                            <path d="M-0.419631888,17.3639326 C-0.606133317,17.3639326 -0.757322598,17.5090698 -0.757322598,17.7050671 L-0.757322598,17.7755453 C-0.757322598,17.9639487 -0.602767228,18.1166798 -0.419631888,18.1166798 L7.00393795,18.1166798 C7.19043938,18.1166798 7.34162866,17.9715426 7.34162866,17.7755453 L7.34162866,17.7050671 C7.34162866,17.5166637 7.18707329,17.3639326 7.00393795,17.3639326 L-0.419631888,17.3639326 Z" id="Path-Copy-3" fill="#FF2025" transform="translate(3.292153, 17.740306) rotate(-90.000000) translate(-3.292153, -17.740306) "></path>
                        </g>
                        <path d="M5.3098652,53.2042784 L5.3098652,39.7205883 L5.3098652,39.7205883 C5.3098652,36.283535 7.60986149,33.4972527 10.4484444,33.4972527 L10.4484444,33.4972527 C13.2864034,33.4972527 15.5870236,36.2830235 15.5870236,39.7205883 L15.5870236,53.2042784" id="Rectangle-1-Copy-4" stroke="#FF2025" stroke-width="1.125" fill="#FFFFFF"></path>
                        <rect id="Rectangle-1" stroke="#FF2025" stroke-width="1.125" fill="#FFFFFF" x="18.2419562" y="10.5924678" width="10.2771584" height="21.1849356" rx="5.48986486"></rect>
                        <rect id="Rectangle-1-Copy" stroke="#FF2025" stroke-width="1.125" fill="#FFFFFF" x="28.5191147" y="10.5924678" width="10.2771584" height="21.1849356" rx="5.48986486"></rect>
                    </g>
                    <g id="04-Red" transform="translate(70.500000, 0.000000)">
                        <path d="M48.8381364,51.0562848 L48.8381364,52.6787956 C48.8381364,57.3437927 45.0548974,61.1255202 40.390967,61.1255202 L13.1358999,61.1255202 C8.47065706,61.1255202 4.68873053,57.3469941 4.68873053,52.6787956 L4.68873053,48.161498 C4.68873053,45.4447215 5.97185516,43.027515 7.9647978,41.4823774 L7.9647978,5.13543583 C7.9647978,2.29921294 10.2711928,0 13.103377,0 C15.941336,0 18.2419562,2.29746657 18.2419562,5.13543583 L18.2419562,39.7147734 L38.7962731,39.7147734 L38.7962731,5.14201046 C38.7962731,2.3021565 41.1026681,0 43.9348524,0 C46.7728113,0 49.0734316,2.29627084 49.0734316,5.14201046 L49.0734316,49.5151235 C49.0734316,50.0520389 48.9909886,50.5697342 48.8381364,51.0562848 Z" id="Rectangle-1-Copy-2" stroke="#FF2025" stroke-width="1.125"></path>
                        <g id="Phone" transform="translate(0.000000, 18.747304)">
                            <path d="M41.1814859,-10.3097345 C43.2905877,-10.3097345 45.0168065,-8.59726203 45.0168065,-6.50137622 L45.0168065,42.2662299 C45.0168065,44.3637267 43.2905877,46.0745881 41.1814859,46.0745881 L15.8657736,46.0745881 C13.7566718,46.0745881 12.030453,44.3605047 12.030453,42.2646189 L12.030453,-6.50137622 C12.030453,-8.59726203 13.7566718,-10.3097345 15.8657736,-10.3097345 L41.1814859,-10.3097345 Z" id="Shape" stroke="#FF2025" stroke-width="1.125" fill="#FFFFFF" transform="translate(28.523630, 17.882427) rotate(-90.000000) translate(-28.523630, -17.882427) "></path>
                            <path d="M54.385339,17.9001696 C54.385339,16.8465883 53.5270967,15.9959905 52.4676786,15.9959905 C51.4082605,15.9959905 50.5500183,16.8465883 50.5500183,17.9001696 C50.5500183,18.9537509 51.4082605,19.8059597 52.4676786,19.8059597 C53.5270967,19.8059597 54.385339,18.9537509 54.385339,17.9001696 Z" id="Path-Copy-2" stroke="#FF2025" stroke-width="0.75" fill="#FFFFFF"></path>
                            <path d="M41.6558241,39.5861819 L41.6558241,-3.71053396 L14.0071207,-3.71053396 L14.0071207,39.5861819 L41.6558241,39.5861819 Z" id="Path" stroke="#FF2025" stroke-width="1.125" fill="#FFFFFF" transform="translate(27.831472, 17.937824) rotate(-90.000000) translate(-27.831472, -17.937824) "></path>
                            <path d="M-0.419631888,17.3639326 C-0.606133317,17.3639326 -0.757322598,17.5090698 -0.757322598,17.7050671 L-0.757322598,17.7755453 C-0.757322598,17.9639487 -0.602767228,18.1166798 -0.419631888,18.1166798 L7.00393795,18.1166798 C7.19043938,18.1166798 7.34162866,17.9715426 7.34162866,17.7755453 L7.34162866,17.7050671 C7.34162866,17.5166637 7.18707329,17.3639326 7.00393795,17.3639326 L-0.419631888,17.3639326 Z" id="Path-Copy-3" fill="#FF2025" transform="translate(3.292153, 17.740306) rotate(-90.000000) translate(-3.292153, -17.740306) "></path>
                        </g>
                        <path d="M5.3098652,53.2042784 L5.3098652,39.7205883 L5.3098652,39.7205883 C5.3098652,36.283535 7.60986149,33.4972527 10.4484444,33.4972527 L10.4484444,33.4972527 C13.2864034,33.4972527 15.5870236,36.2830235 15.5870236,39.7205883 L15.5870236,53.2042784" id="Rectangle-1-Copy-4" stroke="#FF2025" stroke-width="1.125" fill="#FFFFFF"></path>
                        <rect id="Rectangle-1" stroke="#FF2025" stroke-width="1.125" fill="#FFFFFF" x="18.2419562" y="10.5924678" width="10.2771584" height="21.1849356" rx="5.48986486"></rect>
                        <rect id="Rectangle-1-Copy" stroke="#FF2025" stroke-width="1.125" fill="#FFFFFF" x="28.5191147" y="10.5924678" width="10.2771584" height="21.1849356" rx="5.48986486"></rect>
                    </g>
                    <g id="05-Red" transform="translate(30.000000, 75.274725)">
                        <path d="M48.8381364,51.0562848 L48.8381364,52.6787956 C48.8381364,57.3437927 45.0548974,61.1255202 40.390967,61.1255202 L13.1358999,61.1255202 C8.47065706,61.1255202 4.68873053,57.3469941 4.68873053,52.6787956 L4.68873053,48.161498 C4.68873053,45.4447215 5.97185516,43.027515 7.9647978,41.4823774 L7.9647978,5.13543583 C7.9647978,2.29921294 10.2711928,0 13.103377,0 C15.941336,0 18.2419562,2.29746657 18.2419562,5.13543583 L18.2419562,39.7147734 L38.7962731,39.7147734 L38.7962731,5.14201046 C38.7962731,2.3021565 41.1026681,0 43.9348524,0 C46.7728113,0 49.0734316,2.29627084 49.0734316,5.14201046 L49.0734316,49.5151235 C49.0734316,50.0520389 48.9909886,50.5697342 48.8381364,51.0562848 Z" id="Rectangle-1-Copy-2" stroke="#FF2025" stroke-width="1.125"></path>
                        <g id="Phone" transform="translate(0.000000, 18.747304)">
                            <path d="M41.1814859,-10.3097345 C43.2905877,-10.3097345 45.0168065,-8.59726203 45.0168065,-6.50137622 L45.0168065,42.2662299 C45.0168065,44.3637267 43.2905877,46.0745881 41.1814859,46.0745881 L15.8657736,46.0745881 C13.7566718,46.0745881 12.030453,44.3605047 12.030453,42.2646189 L12.030453,-6.50137622 C12.030453,-8.59726203 13.7566718,-10.3097345 15.8657736,-10.3097345 L41.1814859,-10.3097345 Z" id="Shape" stroke="#FF2025" stroke-width="1.125" fill="#FFFFFF" transform="translate(28.523630, 17.882427) rotate(-90.000000) translate(-28.523630, -17.882427) "></path>
                            <path d="M54.385339,17.9001696 C54.385339,16.8465883 53.5270967,15.9959905 52.4676786,15.9959905 C51.4082605,15.9959905 50.5500183,16.8465883 50.5500183,17.9001696 C50.5500183,18.9537509 51.4082605,19.8059597 52.4676786,19.8059597 C53.5270967,19.8059597 54.385339,18.9537509 54.385339,17.9001696 Z" id="Path-Copy-2" stroke="#FF2025" stroke-width="0.75" fill="#FFFFFF"></path>
                            <path d="M41.6558241,39.5861819 L41.6558241,-3.71053396 L14.0071207,-3.71053396 L14.0071207,39.5861819 L41.6558241,39.5861819 Z" id="Path" stroke="#FF2025" stroke-width="1.125" fill="#FFFFFF" transform="translate(27.831472, 17.937824) rotate(-90.000000) translate(-27.831472, -17.937824) "></path>
                            <path d="M-0.419631888,17.3639326 C-0.606133317,17.3639326 -0.757322598,17.5090698 -0.757322598,17.7050671 L-0.757322598,17.7755453 C-0.757322598,17.9639487 -0.602767228,18.1166798 -0.419631888,18.1166798 L7.00393795,18.1166798 C7.19043938,18.1166798 7.34162866,17.9715426 7.34162866,17.7755453 L7.34162866,17.7050671 C7.34162866,17.5166637 7.18707329,17.3639326 7.00393795,17.3639326 L-0.419631888,17.3639326 Z" id="Path-Copy-3" fill="#FF2025" transform="translate(3.292153, 17.740306) rotate(-90.000000) translate(-3.292153, -17.740306) "></path>
                        </g>
                        <path d="M5.3098652,53.2042784 L5.3098652,39.7205883 L5.3098652,39.7205883 C5.3098652,36.283535 7.60986149,33.4972527 10.4484444,33.4972527 L10.4484444,33.4972527 C13.2864034,33.4972527 15.5870236,36.2830235 15.5870236,39.7205883 L15.5870236,53.2042784" id="Rectangle-1-Copy-4" stroke="#FF2025" stroke-width="1.125" fill="#FFFFFF"></path>
                        <rect id="Rectangle-1" stroke="#FF2025" stroke-width="1.125" fill="#FFFFFF" x="18.2419562" y="10.5924678" width="10.2771584" height="21.1849356" rx="5.48986486"></rect>
                        <rect id="Rectangle-1-Copy" stroke="#FF2025" stroke-width="1.125" fill="#FFFFFF" x="28.5191147" y="10.5924678" width="10.2771584" height="21.1849356" rx="5.48986486"></rect>
                    </g>
                </g>
            </g>
        </g>
    </g>
</svg>