<?xml version="1.0" encoding="UTF-8" standalone="no"?>
<svg width="222px" height="120px" viewBox="0 0 222 120" version="1.1" xmlns="http://www.w3.org/2000/svg" xmlns:xlink="http://www.w3.org/1999/xlink" xmlns:sketch="http://www.bohemiancoding.com/sketch/ns">
    <!-- Generator: Sketch 3.5.1 (25234) - http://www.bohemiancoding.com/sketch -->
    <title>Desktop</title>
    <desc>Created with Sketch.</desc>
    <defs></defs>
    <g id="Page-1" stroke="none" stroke-width="1" fill="none" fill-rule="evenodd" sketch:type="MSPage">
        <g id="Desktop" sketch:type="MSArtboardGroup">
            <rect id="BG" fill="#FFFFFF" sketch:type="MSShapeGroup" x="-1022" y="-750" width="1440" height="1286"></rect>
            <g id="04" sketch:type="MSLayerGroup" transform="translate(6.000000, 7.000000)" stroke="#FF2025">
                <g transform="translate(66.000000, 0.000000)" sketch:type="MSShapeGroup">
                    <path d="M65.3873684,20.5625641 L56.9154887,20.5625641 L56.9154887,10.9307692 C56.9154887,10.1474359 56.5586165,9.4074359 55.9466165,8.92102564 C55.3343609,8.43487179 54.5349774,8.25564103 53.7741955,8.43487179 L43.9083158,10.7602564 L43.9083158,2.56410256 C43.9083158,1.66487179 43.4387068,0.831538462 42.6707669,0.367692308 C41.9028271,-0.0964102564 40.9485263,-0.122820513 40.1560451,0.297692308 L1.41368421,20.8625641 C1.40320301,20.8682051 1.39246617,20.8735897 1.38198496,20.8792308 L1.35846617,20.8917949 C1.35948872,20.8915385 1.3612782,20.8912821 1.36255639,20.8910256 C0.583368421,21.3302564 0.0559849624,22.1661538 0.0559849624,23.1266667 L0.0559849624,97.4358974 C0.0559849624,98.8520513 1.2004812,100 2.61237594,100 L65.3873684,100 C66.7992632,100 67.9437594,98.8520513 67.9437594,97.4358974 L67.9437594,23.1266667 C67.9437594,21.7107692 66.7992632,20.5625641 65.3873684,20.5625641 L65.3873684,20.5625641 Z M38.7957895,6.82205128 L38.7957895,11.9651282 L21.3681053,16.0725641 L38.7957895,6.82205128 L38.7957895,6.82205128 Z M51.8029624,20.5625641 L24.6678947,20.5625641 L41.9368271,16.4928205 L51.8027068,14.1674359 L51.8027068,20.5625641 L51.8029624,20.5625641 Z" id="Shape"></path>
                    <path d="M56.9154887,20.5625641 L1.41368421,20.8625641 C0.583368421,21.3302564 0.0559849624,22.1661538 0.0559849624,23.1266667 L0.0559849624,97.4358974 C0.0559849624,98.8520513 1.2004812,100 2.61237594,100 L65.3873684,100 C66.7992632,100 67.9437594,98.8520513 67.9437594,97.4358974 L67.9437594,23.1266667 C67.9437594,21.7107692 66.7992632,20.5625641 65.3873684,20.5625641 L56.9154887,20.5625641 Z" id="Path-Copy-4" fill="#FFFFFF"></path>
                    <path d="M23.1874887,60.4633333 L25.8376992,60.4633333 L24.5045414,56.9146154 L23.1874887,60.4633333 Z M31.6966917,69.7684615 L31.6905564,69.7684615 L30.068782,69.7684615 C29.6270376,69.7684615 29.2310526,69.4935897 29.0751128,69.0789744 L27.2102256,64.1158974 L21.8323459,64.1158974 L19.9925113,69.0746154 C19.8373383,69.4917949 19.4405865,69.7684615 18.996797,69.7684615 L17.3770677,69.7684615 C17.0296541,69.7684615 16.7037143,69.5976923 16.5050827,69.3110256 C16.3069624,69.024359 16.2606917,68.6582051 16.3821203,68.3315385 L22.6038647,51.564359 C22.7585263,51.1479487 23.1545113,50.8712821 23.5972782,50.8702564 L25.3875188,50.8666667 L25.3895639,50.8666667 C25.8315639,50.8666667 26.2278045,51.1415385 26.3832331,51.5561538 L32.6453684,68.2238462 C32.7177143,68.3682051 32.7588722,68.5305128 32.7588722,68.7028205 C32.7591278,69.2912821 32.2831278,69.7684615 31.6966917,69.7684615 L31.6966917,69.7684615 Z" id="Shape"></path>
                    <path d="M42.0914887,54.4469231 L37.9427218,54.4469231 L37.9427218,66.0141026 L42.0914887,66.0141026 C45.3728722,66.0141026 48.0425113,63.4241026 48.0425113,60.2415385 C48.0427669,57.0464103 45.3728722,54.4469231 42.0914887,54.4469231 L42.0914887,54.4469231 Z M42.0914887,69.6669231 L35.3630677,69.6669231 C34.7763759,69.6669231 34.3011429,69.19 34.3011429,68.6015385 L34.3011429,51.8597436 C34.3011429,51.2710256 34.7763759,50.794359 35.3630677,50.794359 L42.0914887,50.794359 C47.3814286,50.794359 51.6848571,55.0320513 51.6848571,60.2417949 C51.6848571,65.4389744 47.3814286,69.6669231 42.0914887,69.6669231 L42.0914887,69.6669231 Z" id="Shape"></path>
                </g>
            </g>
        </g>
    </g>
</svg>