<?xml version="1.0" encoding="UTF-8" standalone="no"?>
<svg width="216px" height="122px" viewBox="0 0 216 122" version="1.1" xmlns="http://www.w3.org/2000/svg" xmlns:xlink="http://www.w3.org/1999/xlink" xmlns:sketch="http://www.bohemiancoding.com/sketch/ns">
    <!-- Generator: Sketch 3.5.1 (25234) - http://www.bohemiancoding.com/sketch -->
    <title>Desktop</title>
    <desc>Created with Sketch.</desc>
    <defs></defs>
    <g id="Page-1" stroke="none" stroke-width="1" fill="none" fill-rule="evenodd" sketch:type="MSPage">
        <g id="Desktop" sketch:type="MSArtboardGroup">
            <rect id="BG" fill="#FFFFFF" sketch:type="MSShapeGroup" x="-594" y="-753" width="1440" height="1286"></rect>
            <g id="03" sketch:type="MSLayerGroup" transform="translate(15.000000, 12.000000)" stroke-width="1.125" stroke="#FF2025">
                <g sketch:type="MSShapeGroup">
                    <g id="Android" transform="translate(100.000000, 0.000000)">
                        <path d="M5.69490278,29.9481818 L5.46126389,29.9481818 C2.46620833,29.9481818 0.0241944444,32.4150909 0.0241944444,35.4232727 L0.0241944444,59.2609091 C0.0241944444,62.2809091 2.46620833,64.7398182 5.46126389,64.7398182 L5.698875,64.7398182 C8.69393056,64.7398182 11.1359444,62.2729091 11.1359444,59.2609091 L11.1359444,35.4230909 C11.1319722,32.4150909 8.68616667,29.9481818 5.69490278,29.9481818 L5.69490278,29.9481818 Z" id="Shape"></path>
                        <path d="M13.7375694,68.4618182 C13.7375694,71.2307273 15.9847639,73.4858182 18.7344444,73.4858182 L24.0741944,73.4858182 L24.0741944,86.3616364 C24.0741944,89.3854545 26.5239722,91.8445455 29.5112639,91.8445455 L29.7449028,91.8445455 C32.7439306,91.8445455 35.1897361,89.3816364 35.1897361,86.3616364 L35.1897361,73.4858182 L42.6520972,73.4858182 L42.6520972,86.3616364 C42.6520972,89.3854545 45.1096389,91.8445455 48.0969306,91.8445455 L48.3267778,91.8445455 C51.325625,91.8445455 53.7676389,89.3816364 53.7676389,86.3616364 L53.7676389,73.4858182 L59.1111806,73.4858182 C61.8568889,73.4858182 64.1042639,71.2307273 64.1042639,68.4618182 L64.1042639,30.8227273 L13.7375694,30.8227273 L13.7375694,68.4618182 L13.7375694,68.4618182 Z" id="Shape"></path>
                        <path d="M51.4657361,7.99690909 L55.7071667,1.40418182 C55.9798056,0.988363636 55.8590139,0.419818182 55.4422917,0.149090909 C55.0295417,-0.125454545 54.4647639,-0.0116363636 54.1959167,0.415818182 L49.7988472,7.23618182 C46.5000972,5.87527273 42.8156806,5.11054545 38.9247083,5.11054545 C35.0299444,5.11054545 31.3532917,5.87527273 28.0467778,7.23618182 L23.6574722,0.415818182 C23.3888056,-0.0116363636 22.8200556,-0.125454545 22.4033333,0.149090909 C21.9866111,0.419636364 21.8658194,0.988363636 22.1384583,1.40418182 L26.3836806,7.99690909 C18.7304722,11.7738182 13.5700139,18.8921818 13.5700139,27.0576364 C13.5700139,27.5596364 13.60125,28.0538182 13.6440417,28.544 L64.2091667,28.544 C64.2519583,28.0538182 64.2792222,27.5596364 64.2792222,27.0576364 C64.2794028,18.8921818 59.1149722,11.7738182 51.4657361,7.99690909 L51.4657361,7.99690909 Z M27.2015972,19.802 C25.8579028,19.802 24.7673472,18.7116364 24.7673472,17.3547273 C24.7673472,15.9978182 25.8579028,14.9112727 27.2015972,14.9112727 C28.5530556,14.9112727 29.6358472,15.9976364 29.6358472,17.3547273 C29.6358472,18.7118182 28.5452917,19.802 27.2015972,19.802 L27.2015972,19.802 Z M50.6440278,19.802 C49.3003333,19.802 48.2097778,18.7116364 48.2097778,17.3547273 C48.2097778,15.9978182 49.3003333,14.9112727 50.6440278,14.9112727 C51.9915139,14.9112727 53.0743056,15.9976364 53.0743056,17.3547273 C53.0743056,18.7116364 51.9915139,19.802 50.6440278,19.802 L50.6440278,19.802 Z" id="Shape"></path>
                        <path d="M72.3803889,29.9481818 L72.1545139,29.9481818 C69.1594583,29.9481818 66.7096806,32.4150909 66.7096806,35.4232727 L66.7096806,59.2609091 C66.7096806,62.2809091 69.1634306,64.7398182 72.1545139,64.7398182 L72.3843611,64.7398182 C75.3832083,64.7398182 77.8214306,62.2729091 77.8214306,59.2609091 L77.8214306,35.4230909 C77.8214306,32.4150909 75.3754444,29.9481818 72.3803889,29.9481818 L72.3803889,29.9481818 Z" id="Shape"></path>
                    </g>
                    <path d="M62.6401781,48.8832186 C62.5239646,37.2321126 72.1531303,31.6443758 72.583264,31.3667589 C67.1728624,23.4587196 58.7446889,22.3753847 55.7413088,22.2501426 C48.5686364,21.5247449 41.7456837,26.468123 38.1054683,26.468123 C34.4744277,26.468123 28.8571445,22.357416 22.9084911,22.4654081 C15.0905282,22.5814861 7.88187639,27.0059271 3.8563217,33.9995376 C-4.26638669,48.0780396 1.77617293,68.9343477 9.69307918,80.3522195 C13.5615838,85.9412141 18.1745021,92.2184112 24.2310937,91.9941614 C30.0635337,91.761646 32.2690706,88.224501 39.3204925,88.224501 C46.3717345,88.224501 48.3540193,91.9941614 54.5261047,91.8784428 C60.8023505,91.7620054 64.7786135,86.1825342 68.6204933,80.5764693 C73.0628693,74.0926318 74.8920618,67.815255 75,67.4930756 C74.8605798,67.4294663 62.7614286,62.7998223 62.6401781,48.8832186 L62.6401781,48.8832186 Z M51.0425796,14.6914155 C54.2571588,10.795974 56.4268962,5.39151825 55.8350352,0 C51.2046668,0.188312319 45.592061,3.08073922 42.2699035,6.9673761 C39.2890105,10.4152165 36.6796049,15.9181409 37.3788644,21.2018468 C42.5480242,21.6047058 47.8245825,18.5780524 51.0425796,14.6914155 L51.0425796,14.6914155 Z" id="Shape"></path>
                </g>
            </g>
        </g>
    </g>
</svg>