<?xml version="1.0" encoding="UTF-8" standalone="no"?>
<svg width="375px" height="157px" viewBox="0 0 375 157" version="1.1" xmlns="http://www.w3.org/2000/svg" xmlns:xlink="http://www.w3.org/1999/xlink" xmlns:sketch="http://www.bohemiancoding.com/sketch/ns">
    <!-- Generator: Sketch 3.5.1 (25234) - http://www.bohemiancoding.com/sketch -->
    <title>Desktop</title>
    <desc>Created with Sketch.</desc>
    <defs></defs>
    <g id="Page-1" stroke="none" stroke-width="1" fill="none" fill-rule="evenodd" sketch:type="MSPage">
        <g id="Desktop" sketch:type="MSArtboardGroup">
            <rect id="BG" fill="#FFFFFF" sketch:type="MSShapeGroup" x="-953" y="-456" width="1440" height="1286"></rect>
            <g id="02" sketch:type="MSLayerGroup" transform="translate(2.000000, 0.000000)" stroke-width="1.125" stroke="#FF2025">
                <g sketch:type="MSShapeGroup">
                    <g id="Group" transform="translate(216.070796, 13.000000)">
                        <path d="M4.02649263,81.4509233 C0.367932153,84.1374525 0.119030088,87.3133153 0.119030088,90.1234633 C0.119030088,92.9324935 4.02649263,103.806253 19.6572655,103.31446 C35.2903451,102.828032 34.5330277,87.799743 34.5330277,87.799743 C34.5330277,87.799743 34.5404094,82.7937408 27.6006785,79.193595 C21.4505599,76.0043197 37.44419,63.0516188 30.7522077,60.5584536 C28.6934024,59.7908099 25.4968909,64.3182084 22.3066077,65.1989644 L22.3066077,69.8446166 L13.4630873,69.8446166 L13.4630873,62.8544546 C13.0485581,62.9315767 12.5955056,62.986121 12.0940106,63.0040043 C8.56416873,63.1249406 9.69979882,54.8169978 5.7921056,55.0626706 C1.88418171,55.309014 3.77597581,64.9606685 5.7921056,70.7001123 C7.80731268,76.4431328 7.68067021,78.7632765 4.02649263,81.4509233 L4.02649263,81.4509233 Z M26.8433611,96.9647462 C26.1111876,96.9647462 25.5206507,96.3922549 25.5206507,95.6845205 C25.5206507,94.9749978 26.1114183,94.4007181 26.8433611,94.4007181 C27.5757652,94.4007181 28.1663021,94.9749978 28.1663021,95.6845205 C28.1665327,96.3924784 27.5757652,96.9647462 26.8433611,96.9647462 L26.8433611,96.9647462 Z M29.4931646,90.8282916 C29.4931646,91.5360259 28.8987062,92.1100821 28.1665327,92.1100821 C27.4398956,92.1100821 26.8454372,91.5360259 26.8454372,90.8282916 C26.8454372,90.1205572 27.4396649,89.5465011 28.1665327,89.5465011 C28.8984755,89.5465011 29.4931646,90.1205572 29.4931646,90.8282916 L29.4931646,90.8282916 Z M26.2777375,82.6734752 C27.3213268,82.6734752 28.1665327,83.4949924 28.1665327,84.506297 C28.1665327,85.5184957 27.3215575,86.3382246 26.2777375,86.3382246 C25.2313799,86.3382246 24.385482,85.5184957 24.385482,84.506297 C24.385482,83.4949924 25.2313799,82.6734752 26.2777375,82.6734752 L26.2777375,82.6734752 Z M12.0937799,75.0976328 L22.306377,75.0976328 L22.306377,79.1951598 L12.0937799,79.1951598 L12.0937799,75.0976328 L12.0937799,75.0976328 Z M12.0937799,83.7996803 L22.306377,83.7996803 L22.306377,87.8972073 L12.0937799,87.8972073 L12.0937799,83.7996803 L12.0937799,83.7996803 Z" id="Shape"></path>
                        <path d="M11.3205457,8.61553672 C10.5565386,8.61553672 9.93393746,9.21708855 9.93393746,9.96014255 C9.93393746,10.700514 10.5565386,11.3038542 11.3205457,11.3038542 C11.6633339,11.3038542 11.97821,11.1775529 12.218577,10.9736825 L13.294692,11.767257 L12.095856,13.2924849 C12.095856,13.2924849 13.6247929,14.7808283 14.5964106,16.491149 L14.5964106,68.6332419 L21.1723617,68.6332419 L21.1723617,17.1087959 C21.6429457,16.414027 22.266931,15.827676 23.0646171,15.737365 L23.0646171,8.03812743 L25.4136159,3.48569222 C25.7880071,2.76141577 25.5995428,1.72038013 24.9977027,1.16107775 L24.1524968,0.380021598 C23.5508873,-0.180174946 22.6530867,-0.113559395 22.1437487,0.530912527 L19.9693735,3.29411663 L18.6927988,2.32260259 C18.7269392,2.20546652 18.7481617,2.08207127 18.7481617,1.95398164 C18.7481617,1.21316307 18.1297127,0.609822894 17.3620147,0.609822894 C16.5975463,0.609822894 15.9749451,1.21316307 15.9749451,1.95398164 C15.9749451,2.69614147 16.5975463,3.2976933 17.3620147,3.2976933 C17.718413,3.2976933 18.0409015,3.16513283 18.2879581,2.94919114 L19.5100926,3.87666739 L17.7290242,6.13533693 L16.6247664,5.29638337 C16.6992755,5.13386825 16.7403363,4.95481102 16.7403363,4.7652473 C16.7403363,4.02398164 16.1181965,3.42108855 15.3495758,3.42108855 C14.5855687,3.42108855 13.9666584,4.02398164 13.9666584,4.7652473 C13.9666584,5.50740713 14.5855687,6.10895896 15.3495758,6.10895896 C15.6469204,6.10895896 15.9179676,6.01820086 16.1444938,5.8639568 L17.2658218,6.71811123 L15.7378077,8.66069222 L14.6547723,7.83783369 C14.694449,7.71466199 14.7172861,7.58701944 14.7172861,7.45132937 C14.7172861,6.71140497 14.0983758,6.10717063 13.3311392,6.10717063 C12.5662094,6.10717063 11.9436083,6.71140497 11.9436083,7.45132937 C11.9436083,8.1934892 12.5662094,8.79593521 13.3311392,8.79593521 C13.6801558,8.79593521 13.9987227,8.66561015 14.2437032,8.45637473 L15.2757587,9.24346652 L13.7477445,11.1842592 L12.6301074,10.3573769 C12.6716295,10.2310756 12.7009257,10.097621 12.7009257,9.95611879 C12.7057699,9.2157473 12.0850142,8.61553672 11.3205457,8.61553672 L11.3205457,8.61553672 Z M11.3205457,10.5684006 C10.9747587,10.5684006 10.6905628,10.2950086 10.6905628,9.95835421 C10.6905628,9.62058207 10.973144,9.34562527 11.3205457,9.34562527 C11.6665634,9.34562527 11.95099,9.61924082 11.95099,9.95835421 C11.9491445,10.2950086 11.6667941,10.5684006 11.3205457,10.5684006 L11.3205457,10.5684006 Z M17.3622454,2.56603996 C17.0155357,2.56603996 16.7318012,2.29287149 16.7318012,1.95420518 C16.7318012,1.61911555 17.0143823,1.34326458 17.3622454,1.34326458 C17.7117233,1.34326458 17.9959192,1.61688013 17.9959192,1.95420518 C17.9940737,2.29264795 17.7114926,2.56603996 17.3622454,2.56603996 L17.3622454,2.56603996 Z M15.3514212,5.37752916 C15.0056342,5.37752916 14.7218997,5.10436069 14.7218997,4.76569438 C14.7218997,4.42971058 15.0037888,4.15475378 15.3514212,4.15475378 C15.7018218,4.15475378 15.9855563,4.42814579 15.9855563,4.76569438 C15.9855563,5.10413715 15.7032059,5.37752916 15.3514212,5.37752916 L15.3514212,5.37752916 Z M13.3362142,8.06271706 C12.9904271,8.06271706 12.7057699,7.79044276 12.7057699,7.45177646 C12.7057699,7.11668683 12.9888124,6.84083585 13.3362142,6.84083585 C13.685692,6.84083585 13.9703493,7.11534557 13.9703493,7.45177646 C13.9703493,7.79044276 13.685692,8.06271706 13.3362142,8.06271706 L13.3362142,8.06271706 Z M22.1114537,4.28418467 C22.670849,4.28418467 23.1199799,4.72143305 23.1199799,5.26195788 C23.1199799,5.80270626 22.670849,6.2397311 22.1114537,6.2397311 C21.5559799,6.2397311 21.1038501,5.80270626 21.1038501,5.26195788 C21.1036195,4.7212095 21.5557493,4.28418467 22.1114537,4.28418467 L22.1114537,4.28418467 Z M20.1027056,7.09388553 C20.6611782,7.09388553 21.1103091,7.53068683 21.1103091,8.07165875 C21.1103091,8.61240713 20.6611782,9.04898488 20.1027056,9.04898488 C19.5453864,9.04898488 19.0932566,8.61240713 19.0932566,8.07165875 C19.0939487,7.53068683 19.5470012,7.09388553 20.1027056,7.09388553 L20.1027056,7.09388553 Z M18.0863451,9.78265011 C18.6457404,9.78265011 19.0939487,10.2198985 19.0939487,10.7604233 C19.0939487,11.3002775 18.6457404,11.7373024 18.0863451,11.7373024 C17.53041,11.7373024 17.0773575,11.300054 17.0773575,10.7604233 C17.0773575,10.2198985 17.53041,9.78265011 18.0863451,9.78265011 L18.0863451,9.78265011 Z M16.0702153,12.284757 C16.6268425,12.284757 17.0792029,12.7220054 17.0792029,13.2625302 C17.0792029,13.8030551 16.6268425,14.2403035 16.0702153,14.2403035 C15.5115121,14.2403035 15.0626118,13.8030551 15.0626118,13.2625302 C15.0626118,12.7220054 15.5115121,12.284757 16.0702153,12.284757 L16.0702153,12.284757 Z" id="Shape"></path>
                    </g>
                    <g id="Group" transform="translate(276.000000, 15.000000)">
                        <path d="M49.1319185,0 C57.6119784,0 64.484023,6.81490971 64.484023,15.2209707 C64.484023,23.6268081 57.6119784,30.4410474 49.1319185,30.4410474 C40.6547889,30.4410474 33.7809411,23.6268081 33.7809411,15.2209707 C33.7807157,6.81490971 40.6545635,0 49.1319185,0 L49.1319185,0 Z" id="Shape"></path>
                        <path d="M15.9079449,57.3297156 C17.1884515,57.3297156 18.3247011,56.7573928 19.1048161,55.8699684 L44.9450834,32.2789165 C39.8162949,31.0451038 35.5580075,27.5941828 33.2638698,23.010237 L12.8499211,49.9518691 C12.0975304,50.9934921 11.651686,51.9016998 11.651686,53.1078014 C11.651686,55.4382122 13.5594854,57.3297156 15.9079449,57.3297156 L15.9079449,57.3297156 Z" id="Shape"></path>
                        <path d="M3.4878647,80.006079 C12.0749903,86.5481242 25.2754109,74.1563634 25.7685896,73.6834876 C25.9103672,73.5607991 39.8336508,61.4070406 46.3245413,68.6054357 C47.6796559,70.1029503 48.2458648,71.8366795 48.0662197,73.9045056 C47.3834782,81.5715305 36.6442179,91.5086275 32.5619691,94.6898126 C31.5429284,95.4851648 31.3659881,96.9509458 32.1675163,97.9623995 C32.630942,98.5479074 33.3175153,98.8533995 34.0158096,98.8533995 C34.5207092,98.8533995 35.0355265,98.6886975 35.4599578,98.3579526 C36.1275974,97.8385937 51.7452249,85.5701919 52.7444303,74.3174898 C53.0451161,70.9414334 52.063492,67.975009 49.8284095,65.4979977 C46.966936,62.3250813 41.557297,59.4914018 32.0681142,64.0078578 C26.8730576,66.47593 22.8104187,70.0571377 22.5778043,70.2622889 C19.7862052,72.911377 10.8111634,79.7061738 6.34843668,76.3082167 C5.37695569,75.5685102 4.8779165,74.6739345 4.77310475,73.4935327 C4.42170362,69.417772 8.76744689,63.5499549 10.9292738,61.0943973 L15.7443033,59.4297223 C15.7443033,59.4297223 14.7800352,59.3231242 12.5095646,57.3053567 C10.3865067,55.4138533 9.82322808,53.3685982 9.82322808,53.3685982 L7.65621689,57.7335372 C6.11289199,59.4395553 -0.480105455,67.1626727 0.0935416731,73.8857336 C0.303841386,76.3602867 1.47705683,78.4775011 3.4878647,80.006079 L3.4878647,80.006079 Z" id="Shape"></path>
                    </g>
                    <path d="M115.329395,30.0667524 L115.80531,28.7375474 C113.386299,26.6569259 114.430444,23.8477397 114.430444,23.8477397 L107.106193,19.4270632 L106.38515,20.2530836 C104.373043,19.0717423 102.019459,17.4335917 99.5034282,15.1544745 C92.2210771,8.55728916 82.0818916,12.4407275 75.3184762,25.5595981 C73.6536699,28.7901958 70.2803646,35.062081 66.1454609,42.6703403 L63.656766,41.3496487 L59.774608,48.6619566 L62.1864485,49.943442 C61.2619545,51.6384976 60.3193111,53.3653664 59.3623276,55.1157589 L56.6222313,53.6608697 L52.7400734,60.9736257 L55.38539,62.3778828 C54.2845565,64.3863647 53.1832748,66.3948466 52.0909558,68.3842854 L49.2634739,66.8832448 L45.381316,74.1951047 L48.1075203,75.6423766 C40.1921843,90.0353393 33.7126597,101.772356 33.7126597,101.772356 C33.7126597,101.772356 32.4119598,104.905723 30.4607979,103.971045 C28.5109804,103.036367 27.4715408,102.212139 30.4607979,98.3992718 C33.4513994,94.5897653 43.1601552,83.4498039 42.9867286,60.7327871 C42.9867286,60.7327871 42.6414437,58.0945403 48.1879598,53.6980597 L13.1934184,57.3632871 C13.1934184,57.3632871 17.642686,59.0988933 20.2741105,61.4662807 C23.4092343,64.2853245 27.3825868,74.5114434 18.3673136,86.9676157 C9.35271258,99.4264764 10.0466433,107.04885 19.5817483,112.908733 C29.1173015,118.773321 42.6396512,119.212431 47.493805,108.367525 C52.348407,97.5203789 85.2869238,22.9211272 85.2869238,22.9211272 C85.2869238,22.9211272 87.8872033,14.2728932 98.2898898,19.6970265 L104.161301,22.7999238 L103.335171,23.7480437 L115.329395,30.0667524 L115.329395,30.0667524 Z" id="Shape" transform="translate(63.902655, 64.500000) rotate(-15.000000) translate(-63.902655, -64.500000) "></path>
                    <g id="Drum" transform="translate(100.805310, 8.000000)">
                        <path d="M82.4257538,84.1384505 C82.4257538,72.0701396 72.6083192,62.2858101 60.4991754,62.2858101 C48.3916954,62.2858101 38.5740231,72.0701396 38.5740231,84.1384505 C38.5740231,87.9634859 39.5650133,91.5558825 41.3002563,94.6830016 C39.4233414,96.7376611 35.7748147,101.748396 35.7748147,109.710704 C35.7748147,111.250574 37.0284683,112.5 38.5740231,112.5 C40.119578,112.5 41.3732316,111.250574 41.3732316,109.710704 C41.3732316,104.481782 43.3568759,101.052612 44.72439,99.2924227 C48.7147359,103.415482 54.3034069,105.991091 60.4991754,105.991091 C66.4222967,105.991091 71.7872878,103.640303 75.7319944,99.833509 C77.0533939,101.734892 78.6935551,105.034951 78.6935551,109.710468 C78.6935551,111.250337 79.946971,112.499763 81.4930013,112.499763 C83.0380807,112.499763 84.2917343,111.250337 84.2917343,109.710468 C84.2917343,102.474503 81.2757393,97.6686897 79.3163409,95.3134004 C81.2816819,92.0410597 82.4257538,88.2283434 82.4257538,84.1384505 Z M60.4991754,99.7906296 C51.8381733,99.7906296 44.7954637,92.7709578 44.7954637,84.1384505 C44.7954637,75.5076016 51.838411,68.4862715 60.4991754,68.4862715 C69.1627922,68.4862715 76.2043133,75.5078385 76.2043133,84.1384505 C76.2043133,92.7711947 69.1627922,99.7906296 60.4991754,99.7906296 Z M70.606134,84.1384505 C70.606134,89.6921668 66.0700186,94.2113278 60.4991754,94.2113278 C54.9302338,94.2113278 50.3931675,89.6924037 50.3931675,84.1384505 C50.3931675,78.5844974 54.9302338,74.0653364 60.4991754,74.0653364 C66.0700186,74.0655733 70.606134,78.5847343 70.606134,84.1384505 Z" id="Path"></path>
                        <path d="M40.035906,35.5472829 L47.424238,36.8232423 C50.9325191,37.4271079 53.6311785,38.7630038 53.4531379,39.802534 L53.1205892,41.6809376 L33.0259996,38.2119675 C33.0259996,38.2119675 33.1721878,37.3697774 33.353081,36.3321424 C33.537302,35.2919015 36.5264364,34.9405744 40.035906,35.5472829 L40.035906,35.5472829 Z" id="Path"></path>
                        <path d="M30.2759959,54.0314 L50.3732003,57.5013178 L49.7185621,61.2612048 L29.6225462,57.7922346 L30.2759959,54.0314 L30.2759959,54.0314 Z" id="Path"></path>
                        <path d="M50.6094786,56.1718183 L30.5129873,52.700953 L32.8584179,39.2031695 L52.9549092,42.6735611 L50.6094786,56.1718183 L50.6094786,56.1718183 Z" id="Path"></path>
                        <path d="M66.9233778,41.4035242 C66.9233778,41.4035242 66.7843207,40.5608604 66.6136488,39.5208564 C66.4422639,38.4794309 69.153284,37.1745694 72.66727,36.6015011 L80.0691512,35.3949543 C83.5850388,34.8216491 86.5713207,35.2030629 86.7427057,36.2409348 L87.0486314,38.1262086 L66.9233778,41.4035242 L66.9233778,41.4035242 Z" id="Path"></path>
                        <path d="M69.5181604,57.2452257 L89.6472173,53.9698053 L90.2654867,57.7363255 L70.1373807,61.0145888 L69.5181604,57.2452257 L69.5181604,57.2452257 Z" id="Path"></path>
                        <path d="M67.087394,42.397806 L87.2155,39.1197796 L89.4311438,52.642201 L69.3008985,55.9214119 L67.087394,42.397806 L67.087394,42.397806 Z" id="Path"></path>
                        <path d="M29.7903656,98.5338594 C30.5667085,99.8685707 30.1074634,101.575693 28.7701377,102.347523 C28.329909,102.601957 27.8480819,102.721593 27.3702958,102.721593 C26.4035515,102.721593 25.4631924,102.218411 24.9468982,101.328841 L18.2897453,89.8556299 L12.1564931,89.8556299 L5.19793088,101.372194 C4.40066991,102.687242 2.67873833,103.115326 1.35567495,102.323596 C0.0326115673,101.525233 -0.396682804,99.8107664 0.401766694,98.4900323 L8.1775571,85.6259643 C8.68149069,84.7866171 9.59261213,84.2760912 10.5738564,84.2760912 L19.9044721,84.2760912 C20.9047327,84.2760912 21.8277394,84.8067538 22.3262058,85.6678961 L29.7903656,98.5338594 L29.7903656,98.5338594 Z" id="Path"></path>
                        <path d="M21.2256338,82.4931594 L9.09580967,82.4931594 L9.09580967,78.0758667 L12.2850913,78.0758667 L12.2850913,22.0518684 C12.2850913,21.0402928 12.833951,20.1066582 13.7241545,19.6139 L24.2207109,13.8019595 C25.5772906,13.056189 27.2764025,13.5404186 28.0256472,14.8860275 C28.7753672,16.2347161 28.29045,17.9330735 26.9393375,18.6802654 L17.8835082,23.6947905 L17.8835082,78.0756298 L21.2256338,78.0756298 L21.2256338,82.4931594 L21.2256338,82.4931594 Z" id="Path"></path>
                        <path d="M19.7266691,14.3004034 C15.8639706,9.03570871 14.5373416,3.85487771 16.8397477,1.38658569 C19.9113655,-1.90541794 28.2659665,0.865399167 35.4971758,7.57070076 C42.7314753,14.2771869 46.1075926,22.3799791 43.0359748,25.6698506 C40.2496023,28.654828 33.1179912,26.6406789 26.4147236,21.2352639 L27.5359759,20.6143412 C29.7889393,19.3682316 30.6023642,16.537715 29.3520384,14.2928225 C28.1002864,12.0479299 25.2601927,11.2334575 23.0079424,12.484779 L19.7266691,14.3004034 L19.7266691,14.3004034 Z" id="Path"></path>
                    </g>
                </g>
            </g>
        </g>
    </g>
</svg>