<?xml version="1.0" encoding="UTF-8" standalone="no"?>
<svg width="15px" height="30px" viewBox="0 0 15 30" version="1.1" xmlns="http://www.w3.org/2000/svg" xmlns:xlink="http://www.w3.org/1999/xlink" xmlns:sketch="http://www.bohemiancoding.com/sketch/ns">
    <!-- Generator: Sketch 3.5.1 (25234) - http://www.bohemiancoding.com/sketch -->
    <title>Facebook</title>
    <desc>Created with Sketch.</desc>
    <defs></defs>
    <g id="Page-1" stroke="none" stroke-width="1" fill="none" fill-rule="evenodd" sketch:type="MSPage">
        <g id="Artboard-1" sketch:type="MSArtboardGroup" transform="translate(-67.000000, -16.000000)" fill="#3B5997">
            <g id="Social-colored" sketch:type="MSLayerGroup" transform="translate(67.000000, 16.000000)">
                <path d="M0.2,9.92066753 L3.28556329,9.92066753 L3.28556329,6.90660018 C3.28556329,5.57721458 3.31896415,3.52746179 4.27913327,2.25800054 C5.29130626,0.913740101 6.67976746,0 9.06898617,0 C12.9612437,0 14.6,0.558018955 14.6,0.558018955 L13.8288206,5.15264418 C13.8288206,5.15264418 12.5430987,4.77907323 11.3436272,4.77907323 C10.1433101,4.77907323 9.06898617,5.21129354 9.06898617,6.41700548 L9.06898617,9.92066753 L13.989483,9.92066753 L13.64575,14.4086189 L9.06898617,14.4086189 L9.06898617,30 L3.28556329,30 L3.28556329,14.4086189 L0.2,14.4086189 L0.2,9.92066753" id="Facebook" sketch:type="MSShapeGroup"></path>
            </g>
        </g>
    </g>
</svg>