<?xml version="1.0" encoding="UTF-8" standalone="no"?>
<svg width="31px" height="30px" viewBox="0 0 31 30" version="1.1" xmlns="http://www.w3.org/2000/svg" xmlns:xlink="http://www.w3.org/1999/xlink" xmlns:sketch="http://www.bohemiancoding.com/sketch/ns">
    <!-- Generator: Sketch 3.5.1 (25234) - http://www.bohemiancoding.com/sketch -->
    <title>Instagram</title>
    <desc>Created with Sketch.</desc>
    <defs></defs>
    <g id="Page-1" stroke="none" stroke-width="1" fill="none" fill-rule="evenodd" sketch:type="MSPage">
        <g id="Artboard-1" sketch:type="MSArtboardGroup" transform="translate(-167.000000, -106.000000)" fill="#FF2025">
            <g id="Social-orange" sketch:type="MSLayerGroup" transform="translate(67.000000, 106.000000)">
                <path d="M124.802049,0 L106.398376,0 C103.201046,0 100.6,2.6001955 100.6,5.79710145 L100.6,24.2024735 C100.6,27.3993795 103.201046,30 106.398376,30 L124.802049,30 C127.998954,30 130.6,27.3993795 130.6,24.2024735 L130.6,5.79710145 C130.6,2.6001955 127.998954,0 124.802049,0 L124.802049,0 Z M126.479116,3.4580491 L127.144503,3.45549738 L127.144503,8.54404854 L122.056852,8.56020942 L122.039791,3.47208355 L126.479116,3.4580491 L126.479116,3.4580491 Z M111.341299,11.948163 C112.3047,10.6129801 113.869691,9.7382199 115.638627,9.7382199 C117.407563,9.7382199 118.972555,10.6129801 119.935528,11.948163 C120.565279,12.8199363 120.940314,13.8850102 120.940314,15.0396937 C120.940314,17.9626731 118.561254,20.3403141 115.638627,20.3403141 C112.716001,20.3403141 110.33822,17.9626731 110.33822,15.0396937 C110.33822,13.8850102 110.713681,12.8199363 111.341299,11.948163 L111.341299,11.948163 Z M127.615707,24.2200935 C127.615707,25.8059326 126.329837,27.0942408 124.746152,27.0942408 L106.375739,27.0942408 C104.792053,27.0942408 103.505759,25.8059326 103.505759,24.2200935 L103.505759,11.9371728 L107.976394,11.9371728 C107.589487,12.8888462 107.372701,13.9276537 107.372701,15.0166164 C107.372701,19.5395093 111.045765,23.2208151 115.560945,23.2208151 C120.076125,23.2208151 123.748765,19.5395093 123.748765,15.0166164 C123.748765,13.9276537 123.530706,12.8888462 123.145497,11.9371728 L127.615707,11.9371728 L127.615707,24.2200935 L127.615707,24.2200935 Z" id="Instagram" sketch:type="MSShapeGroup"></path>
            </g>
        </g>
    </g>
</svg>