<?xml version="1.0" encoding="UTF-8" standalone="no"?>
<svg width="377px" height="765px" viewBox="0 0 377 765" version="1.1" xmlns="http://www.w3.org/2000/svg" xmlns:xlink="http://www.w3.org/1999/xlink" xmlns:sketch="http://www.bohemiancoding.com/sketch/ns">
    <!-- Generator: Sketch 3.5.1 (25234) - http://www.bohemiancoding.com/sketch -->
    <title>iphone</title>
    <desc>Created with Sketch.</desc>
    <defs>
        <path d="M370.748491,217.642998 L371.875314,217.642998 C372.496461,217.642998 373,217.139201 373,216.518644 L373,162.48037 C373,161.859406 372.500893,161.356016 371.875314,161.356016 L370.748491,161.356016 L370.748491,56.2478568 C370.748491,25.1830233 345.565232,0 314.50607,0 L58.4939295,0 C27.4320984,0 2.25150905,25.1842608 2.25150905,56.2478568 L2.25150905,96.0631164 L1.12468582,96.0631164 C0.503538994,96.0631164 0,96.5715186 0,97.1947372 L0,125.701713 C0,126.326689 0.499106845,126.833333 1.12468582,126.833333 L2.25150905,126.833333 L2.25150905,161.356016 L1.12468582,161.356016 C0.503538994,161.356016 0,161.859813 0,162.48037 L0,216.518644 C0,217.139608 0.499106845,217.642998 1.12468582,217.642998 L2.25150905,217.642998 L2.25150905,230.401381 L1.12468582,230.401381 C0.503538994,230.401381 0,230.905178 0,231.525734 L0,285.564009 C0,286.184973 0.499106845,286.688363 1.12468582,286.688363 L2.25150905,286.688363 L2.25150905,704.752143 C2.25150905,735.816977 27.4347678,761 58.4939295,761 L314.50607,761 C345.567902,761 370.748491,735.815739 370.748491,704.752143 L370.748491,217.642998 Z M24.7665996,92.3106509 L24.7665996,665.190656 L346.236601,665.190656 L346.236601,92.3106509 L24.7665996,92.3106509 Z M186.124748,737.734714 C201.875421,737.734714 214.643863,724.96644 214.643863,709.215976 C214.643863,693.465512 201.875421,680.697239 186.124748,680.697239 C170.374076,680.697239 157.605634,693.465512 157.605634,709.215976 C157.605634,724.96644 170.374076,737.734714 186.124748,737.734714 Z M186.124748,734.732742 C200.217455,734.732742 211.641851,723.308497 211.641851,709.215976 C211.641851,695.123456 200.217455,683.699211 186.124748,683.699211 C172.032042,683.699211 160.607646,695.123456 160.607646,709.215976 C160.607646,723.308497 172.032042,734.732742 186.124748,734.732742 Z M127.585513,56.035503 C130.901444,56.035503 133.589537,53.3474453 133.589537,50.0315582 C133.589537,46.715671 130.901444,44.0276134 127.585513,44.0276134 C124.269582,44.0276134 121.581489,46.715671 121.581489,50.0315582 C121.581489,53.3474453 124.269582,56.035503 127.585513,56.035503 Z M186.875252,27.7682446 C188.947708,27.7682446 190.627767,26.0882086 190.627767,24.0157791 C190.627767,21.9433496 188.947708,20.2633136 186.875252,20.2633136 C184.802795,20.2633136 183.122736,21.9433496 183.122736,24.0157791 C183.122736,26.0882086 184.802795,27.7682446 186.875252,27.7682446 Z M159.853078,45.0295858 C158.197357,45.0295858 156.855131,46.3769882 156.855131,48.0315582 C156.855131,49.6895018 158.193337,51.0335306 159.853078,51.0335306 L213.897425,51.0335306 C215.553146,51.0335306 216.895372,49.6861282 216.895372,48.0315582 C216.895372,46.3736146 215.557166,45.0295858 213.897425,45.0295858 L159.853078,45.0295858 Z" id="path-1"></path>
        <rect id="path-2" x="23.7665996" y="91.3106509" width="323.466801" height="574.877712"></rect>
        <linearGradient x1="50%" y1="0%" x2="50%" y2="100%" id="linearGradient-3">
            <stop stop-color="#FFA714" offset="0%"></stop>
            <stop stop-color="#FF2026" offset="100%"></stop>
        </linearGradient>
        <filter x="-50%" y="-50%" width="200%" height="200%" filterUnits="objectBoundingBox" id="filter-4">
            <feOffset dx="0" dy="1" in="SourceAlpha" result="shadowOffsetOuter1"></feOffset>
            <feGaussianBlur stdDeviation="0.5" in="shadowOffsetOuter1" result="shadowBlurOuter1"></feGaussianBlur>
            <feColorMatrix values="0 0 0 0 0   0 0 0 0 0   0 0 0 0 0  0 0 0 0.35 0" in="shadowBlurOuter1" type="matrix" result="shadowMatrixOuter1"></feColorMatrix>
            <feMerge>
                <feMergeNode in="shadowMatrixOuter1"></feMergeNode>
                <feMergeNode in="SourceGraphic"></feMergeNode>
            </feMerge>
        </filter>
        <linearGradient x1="50%" y1="0%" x2="50%" y2="100%" id="linearGradient-5">
            <stop stop-color="#FF5F1E" offset="0%"></stop>
            <stop stop-color="#FF2D23" offset="100%"></stop>
        </linearGradient>
        <linearGradient x1="50%" y1="0%" x2="50%" y2="100%" id="linearGradient-6">
            <stop stop-color="#FF8E18" offset="0%"></stop>
            <stop stop-color="#FF621D" offset="100%"></stop>
        </linearGradient>
        <filter x="-50%" y="-50%" width="200%" height="200%" filterUnits="objectBoundingBox" id="filter-7">
            <feOffset dx="0" dy="1" in="SourceAlpha" result="shadowOffsetOuter1"></feOffset>
            <feGaussianBlur stdDeviation="0.5" in="shadowOffsetOuter1" result="shadowBlurOuter1"></feGaussianBlur>
            <feColorMatrix values="0 0 0 0 0   0 0 0 0 0   0 0 0 0 0  0 0 0 0.35 0" in="shadowBlurOuter1" type="matrix" result="shadowMatrixOuter1"></feColorMatrix>
            <feMerge>
                <feMergeNode in="shadowMatrixOuter1"></feMergeNode>
                <feMergeNode in="SourceGraphic"></feMergeNode>
            </feMerge>
        </filter>
        <filter x="-50%" y="-50%" width="200%" height="200%" filterUnits="objectBoundingBox" id="filter-8">
            <feOffset dx="0" dy="1" in="SourceAlpha" result="shadowOffsetOuter1"></feOffset>
            <feGaussianBlur stdDeviation="0.5" in="shadowOffsetOuter1" result="shadowBlurOuter1"></feGaussianBlur>
            <feColorMatrix values="0 0 0 0 0   0 0 0 0 0   0 0 0 0 0  0 0 0 0.35 0" in="shadowBlurOuter1" type="matrix" result="shadowMatrixOuter1"></feColorMatrix>
            <feMerge>
                <feMergeNode in="shadowMatrixOuter1"></feMergeNode>
                <feMergeNode in="SourceGraphic"></feMergeNode>
            </feMerge>
        </filter>
    </defs>
    <g id="Page-1" stroke="none" stroke-width="1" fill="none" fill-rule="evenodd" sketch:type="MSPage">
        <g id="Device" sketch:type="MSLayerGroup" transform="translate(2.000000, 2.000000)">
            <g id="Apple-iPhone-6">
                <use stroke="none" fill="#FFFFFF" fill-rule="evenodd" sketch:type="MSShapeGroup" xlink:href="#path-1"></use>
                <use stroke="#FF2025" stroke-width="2.25" fill="none" xlink:href="#path-1"></use>
            </g>
            <g id="Screen-Copy">
                <use fill="#1D1E2D" fill-rule="evenodd" sketch:type="MSShapeGroup" xlink:href="#path-2"></use>
                <use fill="none" xlink:href="#path-2"></use>
            </g>
            <g id="Logo" transform="translate(132.589537, 296.694280)" sketch:type="MSShapeGroup">
                <g id="Icon" transform="translate(53.594234, 55.182880) rotate(-330.000000) translate(-53.594234, -55.182880) translate(15.594234, 14.182880)">
                    <path d="M65.5405618,66.4824661 L65.5405618,69.811737 C65.5405618,76.0281379 60.4892449,81.0675265 54.2841133,81.0675265 L18.1459747,81.0675265 C11.9292099,81.0675265 6.88952627,76.0309312 6.88952627,69.811737 L6.88952627,64.1512808 C6.88952627,60.4317212 8.69798925,57.1335534 11.4799971,55.0841707 L11.4799971,6.76010951 C11.4799971,3.02660412 14.5147273,-1.66977543e-13 18.2412856,-1.66977543e-13 C21.9754421,-1.66977543e-13 25.002574,3.03010935 25.002574,6.76010951 L25.002574,52.8954913 L52.0477278,52.8954913 L52.0477278,6.76578872 C52.0477278,3.02914679 55.082458,-1.66977543e-13 58.8090163,-1.66977543e-13 C62.5431728,-1.66977543e-13 65.5703047,3.02752685 65.5703047,6.76578872 L65.5703047,65.8444184 C65.5703047,66.0595949 65.5602413,66.2724252 65.5405618,66.4824661 Z" id="Rectangle-1-Copy-2" stroke="url(#linearGradient-3)" stroke-width="2.25225225" filter="url(#filter-4)"></path>
                    <g id="Phone" transform="translate(-0.000000, 26.905178)">
                        <path d="M54.4636834,-15.6961436 C57.2018157,-15.6961436 59.4428716,-13.4211802 59.4428716,-10.6368648 L59.4428716,54.1492981 C59.4428716,56.9357537 57.2018157,59.2085769 54.4636834,59.2085769 L21.597671,59.2085769 C18.8595388,59.2085769 16.6184828,56.9314734 16.6184828,54.1471579 L16.6184828,-10.6368648 C16.6184828,-13.4211802 18.8595388,-15.6961436 21.597671,-15.6961436 M55.9780812,49.8454869 L55.9780812,-7.67277796 L20.0832733,-7.67277796 L20.0832733,49.8454869" id="Shape" fill="#FFFFFF" transform="translate(38.030677, 21.756217) rotate(-90.000000) translate(-38.030677, -21.756217) "></path>
                        <path d="M0.298044807,21.0674141 C0.142722703,21.0674141 0.0168092587,21.1979625 0.0168092587,21.348849 L0.0168092587,21.348849 C0.0168092587,21.5042812 0.134891213,21.6302839 0.298044807,21.6302839 L10.2500017,21.6302839 C10.4053238,21.6302839 10.5312372,21.4997355 10.5312372,21.348849 L10.5312372,21.348849 C10.5312372,21.1934168 10.4131552,21.0674141 10.2500017,21.0674141 L0.298044807,21.0674141 Z" id="Path-Copy-3" fill="#1D1E2D" transform="translate(5.274023, 21.348849) rotate(-90.000000) translate(-5.274023, -21.348849) "></path>
                        <path d="M72.4681964,21.7797873 C72.4681964,20.3801391 71.3539871,19.2501479 69.9786022,19.2501479 C68.6032173,19.2501479 67.4890081,20.3801391 67.4890081,21.7797873 C67.4890081,23.1794356 68.6032173,24.3115669 69.9786022,24.3115669 C71.3539871,24.3115669 72.4681964,23.1794356 72.4681964,21.7797873 Z" id="Path-Copy-2" stroke="#1D1E2D" stroke-width="0.563063063" fill="#FFFFFF"></path>
                        <path d="M55.3345109,50.4556543 L55.3345109,-7.06261046 L19.439703,-7.06261046 L19.439703,50.4556543" id="Path-Copy" fill="#491157" transform="translate(37.387107, 21.696522) rotate(-90.000000) translate(-37.387107, -21.696522) "></path>
                    </g>
                    <path d="M7.98666473,70.4217044 L7.98666473,52.5090649 L7.98666473,52.5090649 C7.98666473,47.9430525 11.0129756,44.241568 14.7479532,44.241568 L14.7479532,44.241568 C18.4821097,44.241568 21.5092416,47.942373 21.5092416,52.5090649 L21.5092416,70.4217044" id="Rectangle-1-Copy-4" stroke="url(#linearGradient-5)" stroke-width="2.25225225"></path>
                    <rect id="Rectangle-1" stroke="url(#linearGradient-6)" stroke-width="2.25225225" filter="url(#filter-7)" x="25.002574" y="14.0717456" width="13.5225769" height="28.1434911" rx="7.31981982"></rect>
                    <rect id="Rectangle-1-Copy" stroke="url(#linearGradient-6)" stroke-width="2.25225225" filter="url(#filter-8)" x="40.0251509" y="16.6698218" width="13.5225769" height="28.1434911" rx="7.31981982"></rect>
                </g>
            </g>
        </g>
    </g>
</svg>