<?xml version="1.0" encoding="UTF-8" standalone="no"?>
<svg width="37px" height="30px" viewBox="0 0 37 30" version="1.1" xmlns="http://www.w3.org/2000/svg" xmlns:xlink="http://www.w3.org/1999/xlink" xmlns:sketch="http://www.bohemiancoding.com/sketch/ns">
    <!-- Generator: Sketch 3.5.1 (25234) - http://www.bohemiancoding.com/sketch -->
    <title>Twitter</title>
    <desc>Created with Sketch.</desc>
    <defs></defs>
    <g id="Page-1" stroke="none" stroke-width="1" fill="none" fill-rule="evenodd" sketch:type="MSPage">
        <g id="Artboard-1" sketch:type="MSArtboardGroup" transform="translate(-106.000000, -106.000000)" fill="#FF2025">
            <g id="Social-orange" sketch:type="MSLayerGroup" transform="translate(67.000000, 106.000000)">
                <path d="M71.3588957,4.74357413 C72.8847768,3.80644937 74.05579,2.32323408 74.6056571,0.555487879 C73.1780393,1.42265458 71.599208,2.05227712 69.9139673,2.39110384 C68.5698478,0.919374206 66.6488771,0 64.5232336,0 C60.4470894,0 57.1397409,3.39192176 57.1397409,7.57269895 C57.1397409,8.16734246 57.2028738,8.74371335 57.3301578,9.29711292 C51.1920122,8.9812575 45.7513832,5.96888433 42.1064773,1.38349895 C41.4705663,2.50596036 41.1065339,3.80644937 41.1065339,5.19464699 C41.1065339,7.81964046 42.4104316,10.1386979 44.3924987,11.4981814 C43.1822821,11.46007 42.0423262,11.1160225 41.0454376,10.5521814 L41.0454376,10.6456328 C41.0454376,14.3163427 43.5906093,17.3772689 46.9717825,18.0711066 C46.3516547,18.2491342 45.6999604,18.337887 45.0248458,18.337887 C44.5493127,18.337887 44.0849805,18.2924665 43.6364315,18.2037137 C44.5752786,21.2113882 47.3022119,23.4025373 50.5347174,23.4604876 C48.0068564,25.4929259 44.8217005,26.7030959 41.3621203,26.7030959 C40.7659218,26.7030959 40.1768513,26.6696831 39.6,26.5986809 C42.8686542,28.7454536 46.7513266,30 50.9216609,30 C64.5089778,30 71.935747,18.4616188 71.935747,8.45239545 C71.935747,8.12296608 71.9291282,7.79510294 71.9158907,7.47246054 C73.3592917,6.40377286 74.612785,5.06987105 75.6,3.55167673 C74.2767551,4.15362929 72.851683,4.56084785 71.3588957,4.74357413 Z" id="Twitter" sketch:type="MSShapeGroup"></path>
            </g>
        </g>
    </g>
</svg>