<?xml version="1.0" encoding="UTF-8" standalone="no"?>
<svg width="36px" height="30px" viewBox="0 0 36 30" version="1.1" xmlns="http://www.w3.org/2000/svg" xmlns:xlink="http://www.w3.org/1999/xlink" xmlns:sketch="http://www.bohemiancoding.com/sketch/ns">
    <!-- Generator: Sketch 3.5.1 (25234) - http://www.bohemiancoding.com/sketch -->
    <title>YouTube</title>
    <desc>Created with Sketch.</desc>
    <defs></defs>
    <g id="Page-1" stroke="none" stroke-width="1" fill="none" fill-rule="evenodd" sketch:type="MSPage">
        <g id="Artboard-1" sketch:type="MSArtboardGroup" transform="translate(-222.000000, -106.000000)" fill="#FF2025">
            <g id="Social-orange" sketch:type="MSLayerGroup" transform="translate(67.000000, 106.000000)">
                <path d="M180.139392,3.11926606 L180.139392,9.85000161 C179.980306,10.0446385 179.789699,10.2047512 179.596137,10.3293389 C179.385336,10.4549272 179.228713,10.5249765 179.088344,10.5249765 C178.931229,10.5249765 178.807605,10.4724395 178.737666,10.3828765 C178.649012,10.2758012 178.614043,10.1347019 178.614043,9.9210516 L178.614043,3.11926606 L176.826178,3.11926606 L176.826178,10.5249765 C176.826178,11.0603532 176.932071,11.4506278 177.142871,11.7173154 C177.351702,11.9850037 177.669873,12.1100917 178.070788,12.1100917 C178.422451,12.1100917 178.754905,12.0205287 179.121836,11.8434041 C179.472513,11.6472661 179.806937,11.3810788 180.139392,11.0068155 L180.139392,11.9850037 L181.927749,11.9850037 L181.927749,3.11926606 L180.139392,3.11926606 L180.139392,3.11926606 Z M174.744944,3.59687949 C174.26159,3.15012269 173.638198,2.93577982 172.889325,2.93577982 C172.06667,2.93577982 171.406638,3.15012269 170.906218,3.56123934 C170.422864,3.97135205 170.175916,4.50645627 170.175916,5.20420005 L170.175916,9.81181883 C170.175916,10.5803409 170.422864,11.1681524 170.887647,11.6159132 C171.369997,12.061164 172.013967,12.293578 172.798979,12.293578 C173.619627,12.293578 174.282169,12.0797371 174.744944,11.6319763 C175.228298,11.2037926 175.459686,10.6149771 175.459686,9.846957 L175.459686,5.25791126 C175.459686,4.57823854 175.209727,4.02506326 174.744944,3.59687949 L174.744944,3.59687949 Z M173.546597,9.89040794 C173.546597,10.1178662 173.475588,10.2921524 173.33157,10.4329599 C173.190553,10.5737674 172.995529,10.6422018 172.745998,10.6422018 C172.51497,10.6422018 172.320446,10.5737674 172.19393,10.4329599 C172.070915,10.3103688 171.997906,10.1178662 171.997906,9.89040794 L171.997906,5.12510793 C171.997906,4.93359003 172.070915,4.77604318 172.211932,4.67117605 C172.337448,4.54760024 172.531972,4.49541284 172.745998,4.49541284 C172.977027,4.49541284 173.173551,4.54760024 173.33157,4.67117605 C173.475588,4.77604318 173.546597,4.93359003 173.546597,5.12510793 L173.546597,9.89040794 L173.546597,9.89040794 Z M168.02535,0 L166.766621,4.77143678 L166.622937,4.77143678 L165.309827,0 L163.252356,0 L165.684004,7.20880269 L165.684004,11.9266055 L167.724013,11.9266055 L167.724013,6.97936849 L170.084817,0 L168.02535,0 L168.02535,0 Z M181.864261,21.0680087 C181.967805,21.2154856 182.018848,21.4744821 182.018848,21.8079987 L182.018848,22.6605505 L180.652356,22.6605505 L180.652356,21.8079987 C180.652356,21.4744821 180.686871,21.2154856 180.808888,21.0680087 C180.912432,20.9189685 181.085978,20.8256881 181.346054,20.8256881 C181.587171,20.8256881 181.759745,20.9189685 181.864261,21.0680087 L181.864261,21.0680087 Z M176.372905,21.0387917 C176.265224,20.8963907 176.085249,20.8256881 175.868875,20.8256881 C175.761194,20.8256881 175.635313,20.8436127 175.527631,20.8963907 C175.418939,20.9496666 175.294069,21.0387917 175.186387,21.1453435 L175.186387,26.1403323 C175.311257,26.2643108 175.455844,26.3713605 175.581725,26.4236406 C175.708111,26.4769165 175.832981,26.5137615 175.959874,26.5137615 C176.176247,26.5137615 176.318306,26.4599877 176.407788,26.3350134 C176.497775,26.2299553 176.55288,26.0512072 176.55288,25.7858235 L176.55288,21.6422532 C176.55288,21.3748779 176.497775,21.1806948 176.372905,21.0387917 L176.372905,21.0387917 Z M176.372905,21.0387917 C176.265224,20.8963907 176.085249,20.8256881 175.868875,20.8256881 C175.761194,20.8256881 175.635313,20.8436127 175.527631,20.8963907 C175.418939,20.9496666 175.294069,21.0387917 175.186387,21.1453435 L175.186387,26.1403323 C175.311257,26.2643108 175.455844,26.3713605 175.581725,26.4236406 C175.708111,26.4769165 175.832981,26.5137615 175.959874,26.5137615 C176.176247,26.5137615 176.318306,26.4599877 176.407788,26.3350134 C176.497775,26.2299553 176.55288,26.0512072 176.55288,25.7858235 L176.55288,21.6422532 C176.55288,21.3748779 176.497775,21.1806948 176.372905,21.0387917 L176.372905,21.0387917 Z M160.564597,14.8623853 C157.843682,14.8623853 155.6,17.12679 155.6,19.8842344 L155.6,24.9960435 C155.6,27.7524939 157.843682,30 160.564597,30 L185.435403,30 C188.153853,30 190.4,27.7524939 190.4,24.9960435 L190.4,19.8842344 C190.4,17.12679 188.153853,14.8623853 185.435403,14.8623853 L160.564597,14.8623853 Z M167.169634,18.2811964 L165.318851,18.2811964 L165.318851,27.6146789 L163.536779,27.6146789 L163.536779,18.2811964 L161.703665,18.2811964 L161.703665,16.6972477 L167.169634,16.6972477 L167.169634,18.2811964 L167.169634,18.2811964 Z M172.544503,27.5835896 L170.9385,27.5835896 L170.9385,26.7064971 C170.655613,27.03849 170.337986,27.2856347 170.021351,27.4434916 C169.703227,27.6191074 169.401481,27.706422 169.100728,27.706422 C168.731983,27.706422 168.449096,27.5835896 168.254053,27.3374315 C168.076876,27.1095256 167.989529,26.7587872 167.989529,26.2847232 L167.989529,19.6330275 L169.578658,19.6330275 L169.578658,25.7411035 C169.578658,25.9147461 169.613895,26.0568173 169.685361,26.1436386 C169.738464,26.2329264 169.861048,26.2669643 170.003981,26.2669643 C170.125572,26.2669643 170.268505,26.2146742 170.445681,26.0918418 C170.638739,25.9857817 170.798545,25.846177 170.9385,25.6700678 L170.9385,19.6330275 L172.544503,19.6330275 L172.544503,27.5835896 L172.544503,27.5835896 Z M178.19267,25.9285554 C178.19267,26.4980126 178.070042,26.9419794 177.824293,27.2449566 C177.581006,27.546434 177.211644,27.706422 176.740338,27.706422 C176.422194,27.706422 176.159701,27.652926 175.913952,27.5304352 C175.669681,27.4039447 175.443138,27.2274579 175.232356,26.9779767 L175.232356,27.60043 L173.637696,27.60043 L173.637696,16.6972477 L175.232356,16.6972477 L175.232356,20.199985 C175.443138,19.9700022 175.669681,19.7745169 175.913952,19.6490263 C176.159701,19.5240357 176.404957,19.4545409 176.650706,19.4545409 C177.141712,19.4545409 177.526833,19.6315276 177.789327,19.9700022 C178.05379,20.3074769 178.19267,20.8049396 178.19267,21.4643902 L178.19267,25.9285554 L178.19267,25.9285554 Z M183.658639,23.8653459 L180.646516,23.8653459 L180.646516,25.3720025 C180.646516,25.7971358 180.681239,26.0822194 180.787365,26.2417067 C180.890557,26.4181395 181.082758,26.488912 181.32631,26.488912 C181.586979,26.488912 181.760596,26.4181395 181.865744,26.2760961 C181.969913,26.1519951 182.021265,25.8325221 182.021265,25.3720025 L182.021265,24.9992009 L183.658639,24.9992009 L183.658639,25.406392 C183.658639,26.2417067 183.449321,26.8607168 183.048291,27.2689046 C182.666335,27.6940379 182.072616,27.8899083 181.291587,27.8899083 C180.577069,27.8899083 180.021497,27.6770924 179.619978,27.2335183 C179.221394,26.7909411 179.012565,26.1873813 179.012565,25.406392 L179.012565,21.8074613 C179.012565,21.1161836 179.238511,20.5485085 179.691381,20.1059312 C180.125178,19.6788043 180.698846,19.4495413 181.412874,19.4495413 C182.127391,19.4495413 182.684431,19.6623572 183.064919,20.070545 C183.449321,20.4787328 183.658639,21.0454111 183.658639,21.8074613 L183.658639,23.8653459 L183.658639,23.8653459 Z M175.868875,20.8256881 C175.761194,20.8256881 175.635313,20.8436127 175.527631,20.8963907 C175.418939,20.9496666 175.294069,21.0387917 175.186387,21.1453435 L175.186387,26.1403323 C175.311257,26.2643108 175.455844,26.3713605 175.581725,26.4236406 C175.708111,26.4769165 175.832981,26.5137615 175.959874,26.5137615 C176.176247,26.5137615 176.318306,26.4599877 176.407788,26.3350134 C176.497775,26.2299553 176.55288,26.0512072 176.55288,25.7858235 L176.55288,21.6422532 C176.55288,21.3748779 176.497775,21.1806948 176.372905,21.0387917 C176.265224,20.8963907 176.085249,20.8256881 175.868875,20.8256881 L175.868875,20.8256881 Z M176.372905,21.0387917 C176.265224,20.8963907 176.085249,20.8256881 175.868875,20.8256881 C175.761194,20.8256881 175.635313,20.8436127 175.527631,20.8963907 C175.418939,20.9496666 175.294069,21.0387917 175.186387,21.1453435 L175.186387,26.1403323 C175.311257,26.2643108 175.455844,26.3713605 175.581725,26.4236406 C175.708111,26.4769165 175.832981,26.5137615 175.959874,26.5137615 C176.176247,26.5137615 176.318306,26.4599877 176.407788,26.3350134 C176.497775,26.2299553 176.55288,26.0512072 176.55288,25.7858235 L176.55288,21.6422532 C176.55288,21.3748779 176.497775,21.1806948 176.372905,21.0387917 L176.372905,21.0387917 Z M176.372905,21.0387917 C176.265224,20.8963907 176.085249,20.8256881 175.868875,20.8256881 C175.761194,20.8256881 175.635313,20.8436127 175.527631,20.8963907 C175.418939,20.9496666 175.294069,21.0387917 175.186387,21.1453435 L175.186387,26.1403323 C175.311257,26.2643108 175.455844,26.3713605 175.581725,26.4236406 C175.708111,26.4769165 175.832981,26.5137615 175.959874,26.5137615 C176.176247,26.5137615 176.318306,26.4599877 176.407788,26.3350134 C176.497775,26.2299553 176.55288,26.0512072 176.55288,25.7858235 L176.55288,21.6422532 C176.55288,21.3748779 176.497775,21.1806948 176.372905,21.0387917 L176.372905,21.0387917 Z" id="YouTube" sketch:type="MSShapeGroup"></path>
            </g>
        </g>
    </g>
</svg>